<?xml version="1.0" encoding="UTF-8" standalone="no"?>
<!-- Created with Inkscape (http://www.inkscape.org/) -->

<svg
   width="960mm"
   height="480mm"
   viewBox="0 0 960 480"
   version="1.1"
   id="svg1"
   xmlns="http://www.w3.org/2000/svg"
   xmlns:svg="http://www.w3.org/2000/svg">
  <defs
     id="defs1" />
  <g
     id="layer1"
     transform="translate(288.76621,5.3642524)">
    <rect
       style="fill:#f6f7eb;fill-opacity:1;stroke:#e94f37;stroke-width:0;stroke-dasharray:none;stroke-opacity:1"
       id="rect8"
       width="673.38037"
       height="374.8269"
       x="-145.45639"
       y="47.222294"
       ry="75.381294" />
    <path
       style="font-size:116.786px;font-family:Lato;-inkscape-font-specification:Lato;fill:#393e41;stroke:#241e1e;stroke-width:0"
       d="m -55.53496,313.13687 h 13.196819 q 2.043755,0 3.386794,0.99268 1.401432,0.93429 1.868576,2.56929 l 14.364678,50.50995 q 0.525537,1.86858 0.934288,4.08751 0.467144,2.16054 0.875895,4.61305 0.467144,-2.45251 0.992681,-4.61305 0.58393,-2.21893 1.226253,-4.08751 l 16.5836126,-50.50995 q 0.467144,-1.34304 1.81018308,-2.4525 1.40143202,-1.10947 3.38679412,-1.10947 h 4.6130471 q 2.043755,0 3.3867941,0.99268 1.343039,0.93429 1.868576,2.56929 l 16.466826,50.50995 q 1.284647,3.73715 2.218935,8.29181 0.408751,-2.27733 0.817502,-4.37948 0.467144,-2.10215 0.934288,-3.91233 L 47.76226,316.69884 q 0.408751,-1.45982 1.810183,-2.5109 1.401432,-1.05107 3.386794,-1.05107 H 65.28016 l -26.218457,84.43628 h -14.1895 L 6.4200149,339.88087 q -0.3503581,-1.10947 -0.7591091,-2.39412 -0.350358,-1.28464 -0.700716,-2.74447 -0.350358,1.45983 -0.759109,2.74447 -0.350358,1.28465 -0.700716,2.39412 l -18.6273678,57.69228 h -14.189499 z m 151.588127,23.59077 q 5.664123,0 10.393953,1.81019 4.78823,1.81018 8.23341,5.31376 3.44519,3.44519 5.37216,8.52538 1.92697,5.0218 1.92697,11.50342 0,1.635 -0.17518,2.74447 -0.11678,1.05107 -0.52554,1.6934 -0.35035,0.58393 -0.99268,0.87589 -0.64232,0.23357 -1.635,0.23357 H 81.630096 q 0.642323,9.2261 4.963405,13.54718 4.321082,4.32108 11.445028,4.32108 3.503581,0 6.014481,-0.8175 2.56929,-0.8175 4.43787,-1.81018 1.92697,-0.99268 3.3284,-1.81019 1.45982,-0.8175 2.80286,-0.8175 0.8759,0 1.51822,0.35036 0.64232,0.35036 1.10947,0.99268 l 4.20429,5.25537 q -2.39411,2.80287 -5.37215,4.72983 -2.97805,1.86858 -6.24805,3.03644 -3.21162,1.10947 -6.59841,1.57661 -3.328405,0.46715 -6.481627,0.46715 -6.248051,0 -11.620207,-2.04376 -5.372156,-2.10215 -9.34288,-6.13126 -3.970724,-4.08751 -6.248051,-10.0436 -2.277327,-6.01448 -2.277327,-13.89754 0,-6.13126 1.985362,-11.50342 1.985362,-5.43055 5.664121,-9.40127 3.737152,-4.02912 9.050915,-6.36484 5.372156,-2.33572 12.087351,-2.33572 z m 0.291965,10.33556 q -6.306444,0 -9.868417,3.56198 -3.561973,3.56197 -4.554654,10.10199 h 27.094349 q 0,-2.80287 -0.75911,-5.25537 -0.7591,-2.5109 -2.33572,-4.37948 -1.57661,-1.86857 -3.97072,-2.91965 -2.394113,-1.10947 -5.605728,-1.10947 z m 37.546728,50.50995 v -86.772 h 14.42307 v 34.2183 q 3.56197,-3.79555 8.05823,-6.01448 4.49626,-2.27733 10.51074,-2.27733 4.90501,0 8.93413,2.04376 4.08751,1.98536 7.00716,5.8393 2.97804,3.85394 4.55466,9.51806 1.635,5.66412 1.635,13.02164 0,6.71519 -1.81018,12.43771 -1.81019,5.72251 -5.19698,9.92681 -3.3284,4.20429 -8.11663,6.59841 -4.72983,2.33572 -10.62752,2.33572 -2.74448,0 -5.0218,-0.58393 -2.27733,-0.52554 -4.14591,-1.51822 -1.86857,-0.99268 -3.50358,-2.39412 -1.57661,-1.45982 -3.03643,-3.21161 l -0.64232,4.02912 q -0.35036,1.51821 -1.22626,2.16054 -0.8175,0.64232 -2.27733,0.64232 z M 161.9205,347.9391 q -4.49626,0 -7.70788,1.92697 -3.15322,1.86857 -5.89769,5.31376 v 26.86078 q 2.4525,3.03644 5.31376,4.26269 2.91965,1.16786 6.30644,1.16786 3.27001,0 5.8977,-1.22625 2.62768,-1.22625 4.43787,-3.73715 1.86857,-2.5109 2.86125,-6.30645 0.99268,-3.85394 0.99268,-9.05091 0,-5.25537 -0.87589,-8.87574 -0.8175,-3.67876 -2.39411,-5.95609 -1.57662,-2.27732 -3.85394,-3.3284 -2.21894,-1.05107 -5.08019,-1.05107 z m 81.57498,14.59825 q 0.99268,1.86858 1.81018,3.91233 0.87589,1.98536 1.6934,4.02912 0.8175,-2.10215 1.69339,-4.14591 0.8759,-2.04375 1.86858,-3.91233 l 24.9922,-46.77279 q 0.46715,-0.8759 0.93429,-1.40143 0.52554,-0.52554 1.10947,-0.75911 0.64232,-0.23357 1.40143,-0.29197 0.75911,-0.0584 1.81018,-0.0584 h 11.85378 v 84.43628 h -13.83914 v -54.53906 q 0,-1.51822 0.0584,-3.3284 0.11679,-1.81019 0.29197,-3.67876 l -25.51774,47.88226 q -0.8759,1.635 -2.27733,2.56929 -1.40143,0.8759 -3.27001,0.8759 h -2.16054 q -1.86857,0 -3.27001,-0.8759 -1.40143,-0.93429 -2.27732,-2.56929 l -25.8681,-48.05744 q 0.23357,1.92697 0.29196,3.79554 0.11679,1.81019 0.11679,3.3868 v 54.53906 h -13.83914 v -84.43628 h 11.85378 q 1.05107,0 1.81018,0.0584 0.75911,0.0584 1.34304,0.29197 0.64232,0.23357 1.16786,0.75911 0.52554,0.52553 0.99268,1.40143 l 25.22578,46.88958 z m 90.97632,-25.80971 q 6.71519,0 12.14574,2.16054 5.48894,2.16055 9.34288,6.13127 3.85394,3.97072 5.95609,9.69324 2.10215,5.72251 2.10215,12.78806 0,7.12395 -2.10215,12.84647 -2.10215,5.72251 -5.95609,9.75163 -3.85394,4.02911 -9.34288,6.18965 -5.43055,2.16055 -12.14574,2.16055 -6.7152,0 -12.20414,-2.16055 -5.48894,-2.16054 -9.40127,-6.18965 -3.85394,-4.02912 -6.01448,-9.75163 -2.10215,-5.72252 -2.10215,-12.84647 0,-7.06555 2.10215,-12.78806 2.16054,-5.72252 6.01448,-9.69324 3.91233,-3.97072 9.40127,-6.13127 5.48894,-2.16054 12.20414,-2.16054 z m 0,50.62674 q 7.4743,0 11.03627,-5.0218 3.62037,-5.0218 3.62037,-14.71504 0,-9.69324 -3.62037,-14.77343 -3.56197,-5.08019 -11.03627,-5.08019 -7.59109,0 -11.21146,5.13858 -3.62037,5.0802 -3.62037,14.71504 0,9.63485 3.62037,14.71504 3.62037,5.0218 11.21146,5.0218 z m 60.49522,11.15306 q -7.76627,0 -11.97057,-4.37948 -4.20429,-4.43786 -4.20429,-12.20413 v -33.45919 h -6.07288 q -1.16786,0 -2.04375,-0.75911 -0.8175,-0.75911 -0.8175,-2.27733 v -5.72251 l 9.63484,-1.57661 3.03644,-16.35005 q 0.23357,-1.16786 1.05107,-1.81018 0.8759,-0.64232 2.16054,-0.64232 h 7.47431 v 18.86094 h 15.76611 v 10.27717 h -15.76611 v 32.46651 q 0,2.80286 1.40143,4.37947 1.40143,1.57661 3.73715,1.57661 1.34304,0 2.21894,-0.29196 0.93428,-0.35036 1.57661,-0.70072 0.70071,-0.35036 1.22625,-0.64232 0.52554,-0.35036 1.05107,-0.35036 0.64233,0 1.05108,0.35036 0.40875,0.29196 0.87589,0.93429 l 4.32109,7.00716 q -3.15323,2.62768 -7.24074,3.97072 -4.08751,1.34304 -8.46698,1.34304 z m 40.87499,-60.84551 v 59.91122 h -14.42307 v -59.91122 z m 2.16054,-17.45951 q 0,1.86858 -0.75911,3.50358 -0.75911,1.63501 -2.04375,2.86126 -1.22626,1.22625 -2.91965,1.98536 -1.6934,0.70072 -3.62037,0.70072 -1.86857,0 -3.56197,-0.70072 -1.63501,-0.75911 -2.86126,-1.98536 -1.22625,-1.22625 -1.98536,-2.86126 -0.70072,-1.635 -0.70072,-3.50358 0,-1.92697 0.70072,-3.62036 0.75911,-1.6934 1.98536,-2.91965 1.22625,-1.22626 2.86126,-1.92697 1.6934,-0.75911 3.56197,-0.75911 1.92697,0 3.62037,0.75911 1.69339,0.70071 2.91965,1.92697 1.28464,1.22625 2.04375,2.91965 0.75911,1.69339 0.75911,3.62036 z"
       id="text7"
       aria-label="WebMoti" />
    <rect
       style="display:inline;fill:#f6f7eb;fill-opacity:1;stroke-width:26.3131;stroke-dasharray:none"
       id="rect2-5"
       width="229.62476"
       height="229.62476"
       x="76.421585"
       y="67.236824"
       ry="49.471874" />
    <path
       id="rect1-7"
       style="display:inline;fill:none;stroke:#e94f37;stroke-width:20.6428;stroke-dasharray:none;stroke-opacity:1"
       d="m 86.749017,182.31709 -0.01476,-71.10419 c -0.0037,-18.044606 14.540853,-33.955476 32.517223,-33.950606 16.98534,0.005 34.27236,0.28907 34.27236,0.28907 M 295.7189,182.31709 295.7333,111.2129 c 0.004,-18.044606 -14.54086,-33.955476 -32.51723,-33.950606 -16.98533,0.005 -34.27235,0.28907 -34.27235,0.28907 M 86.749017,181.7813 l -0.01472,71.10419 c -0.0037,18.04461 14.540853,33.95548 32.517223,33.95061 16.98534,-0.005 34.27235,-0.28906 34.27235,-0.28906 m 142.19506,-104.76573 0.0144,71.10418 c 0.004,18.04462 -14.54085,33.95549 -32.51722,33.95062 -16.98534,-0.005 -34.27236,-0.28907 -34.27236,-0.28907" />
    <rect
       style="fill:#393e41;fill-opacity:1;stroke:#ffffff;stroke-width:0;stroke-dasharray:none;stroke-opacity:1"
       id="rect2"
       width="32.453949"
       height="32.453949"
       x="238.51834"
       y="100.57272"
       ry="7.2397256" />
    <path
       style="fill:#393e41;fill-opacity:1;stroke:#ffffff;stroke-width:0;stroke-dasharray:none;stroke-opacity:1"
       d="m 153.59458,296.86158 -0.57134,-20.48936 c -0.21092,-7.56372 -1.66969,-9.89511 -11.54339,-19.73959 -14.28597,-14.24369 -22.10389,-46.47396 -37.41358,-69.27716 -6.064282,-9.03253 1.73939,-15.71388 11.33215,-14.87433 15.60775,1.36598 19.08528,28.52537 24.76845,41.46899 l 111.73676,-9.19257 c -1.685,18.60252 -8.34746,37.20246 -14.47093,50.78851 -6.50754,14.43817 -7.71542,10.20931 -8.00116,21.03722 l -0.53513,20.27829 z"
       id="path3" />
    <path
       style="fill:#393e41;fill-opacity:1;stroke:#241e1e;stroke-width:0;stroke-dasharray:none"
       d="m 139.10204,113.73814 v 83.22344 h 20.89076 v -83.22344 c 0,-6.90074 -6.85012,-8.32522 -10.44537,-8.14417 -3.37482,0.16995 -10.44539,1.54161 -10.44539,8.14417 z"
       id="path4" />
    <path
       style="fill:#393e41;fill-opacity:1;stroke:#241e1e;stroke-width:0;stroke-dasharray:none"
       d="m 170.33628,101.23033 v 83.22344 h 20.89076 v -83.22344 c 0,-6.900736 -6.85012,-8.325216 -10.44537,-8.144166 -3.37481,0.16995 -10.44539,1.54161 -10.44539,8.144166 z"
       id="path6" />
    <path
       style="fill:#393e41;fill-opacity:1;stroke:#241e1e;stroke-width:0;stroke-dasharray:none"
       d="m 204.42731,107.79361 v 83.22344 h 20.89076 v -83.22344 c 0,-6.90074 -6.85012,-8.325216 -10.44537,-8.144166 -3.37481,0.16995 -10.44539,1.541606 -10.44539,8.144166 z"
       id="path7" />
    <path
       style="fill:#393e41;fill-opacity:1;stroke:#241e1e;stroke-width:0;stroke-dasharray:none"
       d="m 243.06808,151.15814 -19.05302,81.01311 20.33592,4.78269 19.05302,-81.01311 c 1.57984,-6.71746 -4.76223,-9.67236 -8.30344,-10.3192 -3.32409,-0.60719 -10.5209,-0.89069 -12.03248,5.53651 z"
       id="path8" />
    <circle
       style="display:inline;fill:#f6f7eb;fill-opacity:1;stroke:#393e41;stroke-width:19.061;stroke-dasharray:none;stroke-opacity:1"
       id="path1"
       cx="191.22704"
       cy="196.96158"
       r="49.504238" />
  </g>
</svg>
