<?xml version="1.0" encoding="UTF-8" standalone="no"?>
<!-- Created with Inkscape (http://www.inkscape.org/) -->

<svg
   width="32"
   height="32"
   viewBox="0 0 32 32"
   version="1.1"
   id="svg1"
   xml:space="preserve"
   xmlns="http://www.w3.org/2000/svg"
   xmlns:svg="http://www.w3.org/2000/svg"><defs
     id="defs1" /><g
     id="layer1"><rect
       style="fill:#f6f7eb;fill-opacity:1;stroke-width:3.66693;stroke-dasharray:none"
       id="rect2"
       width="31.999998"
       height="31.999998"
       x="1.1461046e-06"
       y="1.1461046e-06"
       ry="6.8942909" /><path
       d="M 24.801833,8.8835119 21.102598,23.116488 H 18.970996 L 15.979109,11.301875 13.054131,23.116488 H 10.970324 L 7.2041766,8.8835119 H 9.1446022 L 12.136492,20.717243 15.080585,8.8835119 h 1.921309 l 2.97277,11.9484351 2.972771,-11.9484351 z"
       id="text2"
       style="display:inline;fill:#393e41;fill-opacity:1;stroke:#393e41;stroke-width:2.039;stroke-dasharray:none;stroke-opacity:1"
       aria-label="W" /><path
       id="rect1"
       style="display:inline;fill:none;stroke:#e94f37;stroke-width:3;stroke-dasharray:none;stroke-opacity:1"
       d="M 1.7448723,13.024684 1.7427277,2.6911741 c -5.442e-4,-2.62240821 2.1132094,-4.9347205 4.7256998,-4.9340136 2.4684642,6.68e-4 4.9807715,0.042011 4.9807715,0.042011 m 20.665085,15.2255128 0.0021,-10.3335099 c 5.44e-4,-2.62240821 -2.11321,-4.9347205 -4.7257,-4.9340136 -2.468464,6.68e-4 -4.980772,0.042011 -4.980772,0.042011 M 1.7448723,12.946818 l -0.00214,10.33351 c -5.442e-4,2.622408 2.1132094,4.934721 4.7256998,4.934014 2.4684642,-6.68e-4 4.9807715,-0.04201 4.9807715,-0.04201 m 20.665085,-15.225513 0.0021,10.33351 c 5.44e-4,2.622408 -2.11321,4.934721 -4.7257,4.934014 -2.468464,-6.68e-4 -4.980772,-0.04201 -4.980772,-0.04201"
       transform="matrix(0.95891159,0,0,0.95891159,-0.2339687,3.5478128)" /></g></svg>
