<?xml version="1.0" encoding="UTF-8" standalone="no"?>
<!-- Created with Inkscape (http://www.inkscape.org/) -->

<svg
   width="32"
   height="32"
   viewBox="0 0 32 32"
   version="1.1"
   id="svg1"
   xml:space="preserve"
   xmlns="http://www.w3.org/2000/svg"
   xmlns:svg="http://www.w3.org/2000/svg"><defs
     id="defs1" /><g
     id="layer1"><rect
       style="fill:#ffffff;stroke-width:3.66693;stroke-dasharray:none"
       id="rect2"
       width="31.999998"
       height="31.999998"
       x="1.1461046e-06"
       y="1.1461046e-06"
       ry="3.1598835" /><path
       d="M 24.801833,8.8835119 21.102598,23.116488 H 18.970996 L 15.979109,11.301875 13.054131,23.116488 H 10.970324 L 7.2041766,8.8835119 H 9.1446022 L 12.136492,20.717243 15.080585,8.8835119 h 1.921309 l 2.97277,11.9484351 2.972771,-11.9484351 z"
       id="text2"
       style="stroke:#000000;stroke-width:2.0392"
       aria-label="W" /><path
       id="rect1"
       style="display:inline;fill:none;stroke:#ed1a28;stroke-width:3;stroke-dasharray:none"
       d="M 11.449202,28.172331 H 2.2926326 c -0.3034592,0 -0.5477603,-0.244301 -0.5477603,-0.547761 V -1.6530685 c 0,-0.3034592 0.2443011,-0.5477603 0.5477603,-0.5477603 H 11.449202 M 22.409954,28.172331 h 9.15657 c 0.303459,0 0.54776,-0.244301 0.54776,-0.547761 V -1.6530685 c 0,-0.3034592 -0.244301,-0.5477603 -0.54776,-0.5477603 h -9.15657"
       transform="matrix(0.95891159,0,0,0.95891159,-0.2339687,3.5478128)" /></g></svg>
