<?xml version="1.0" encoding="UTF-8" standalone="no"?>
<!-- Created with Inkscape (http://www.inkscape.org/) -->

<svg
   width="32"
   height="32"
   viewBox="0 0 32 32"
   version="1.1"
   id="svg1"
   xml:space="preserve"
   xmlns="http://www.w3.org/2000/svg"
   xmlns:svg="http://www.w3.org/2000/svg"><defs
     id="defs1" /><g
     id="layer1"><path
       d="m 21.393555,11.637695 -2.267578,8.72461 h -1.306641 l -1.833984,-7.242188 -1.792969,7.242188 h -1.277344 l -2.308594,-8.72461 h 1.189453 l 1.833985,7.253907 1.804687,-7.253907 h 1.177735 l 1.822265,7.324219 1.822266,-7.324219 z"
       id="text2"
       style="stroke:#000000;stroke-width:1.25"
       aria-label="W" /><path
       id="rect1"
       style="display:inline;fill:none;stroke:#ed1a28;stroke-width:1.21772"
       d="M 11.449202,22.172331 H 4.2926326 c -0.3034592,0 -0.5477603,-0.244301 -0.5477603,-0.547761 V 4.3469315 c 0,-0.3034592 0.2443011,-0.5477603 0.5477603,-0.5477603 h 7.1565694 m 9.101596,18.3731598 h 7.156569 c 0.30346,0 0.547761,-0.244301 0.547761,-0.547761 V 4.3469315 c 0,-0.3034592 -0.244301,-0.5477603 -0.547761,-0.5477603 h -7.156569"
       transform="translate(0,3.0142489)" /></g></svg>
